<svg id="katman_1" data-name="katman 1" xmlns="http://www.w3.org/2000/svg" viewBox="0 0 1888.03 486"><defs><style>.cls-1{fill:#ffec00;}.cls-1,.cls-2,.cls-3{fill-rule:evenodd;}.cls-2{fill:#565757;}.cls-3{fill:#fff;}</style></defs><path id="path7904-2-9-6-4-4-9" class="cls-1" d="M1870.69,297h-273V783h273c18.33,0,33.33-14.7,33.33-32.68V329.68C1904,311.7,1889,297,1870.69,297Z" transform="translate(-15.98 -297)"/><path id="path7906-2-7-1-3-6-3" class="cls-1" d="M260.38,297h273V783h-273c-18.33,0-33.32-14.7-33.32-32.68V329.68C227.06,311.7,242.05,297,260.38,297Z" transform="translate(-15.98 -297)"/><path id="path7908-4-9-0-7-7-1" class="cls-1" d="M1255.16,297h306.35V783H1255.16Z" transform="translate(-15.98 -297)"/><path id="path7910-8-2-8-1-7" class="cls-1" d="M912.09,297h306.35V783H912.09Z" transform="translate(-15.98 -297)"/><path id="path7912-6-4-9-1-3" class="cls-1" d="M565.64,297H872V783H565.64Z" transform="translate(-15.98 -297)"/><path id="path7916-7-4-1-0-7" class="cls-2" d="M1668.12,624.91c9.91-.65,20.39.81,30.29.16l50.18-96.48c2.63-5.08,12.63-5,14.53-1.29,15.85,33,32.68,65,48.53,98,11.67-.22,21.6-.1,33.26-.31,2.82-4.77,4.53-9.82,3.38-16.75-27.73-56.55-56.82-112-84.55-168.6-1.17-2.69-12.85-2.77-14.49,0-29,58.71-56.7,115.07-85.75,173.78,2.2,4.1,2.42,7.4,4.62,11.49Z" transform="translate(-15.98 -297)"/><path id="path7920-4-1-3-3-1" class="cls-2" d="M1393.82,622.32c.13-60.81.21-121.25.32-182.06,12.1-.09,23.55-.1,35.65-.15,2,0,3.55,2,3.8,3.72-.14,60.7-.22,120.6-.32,181.3h-36.61c-1.09-.38-2.62-1.56-2.84-2.8Z" transform="translate(-15.98 -297)"/><path id="path7924-9-9-1-9-6" class="cls-2" d="M973.87,564q.32-62,.66-124l36.31-.32c3,.67,3.83,2.56,4,4.85q-.31,58.44-.65,116.88c1.26,12.53,15.18,24.59,26.08,25.25l119.09-.32a4.7,4.7,0,0,1,4.37,5.26c-.32,11.44-.65,22.47-1,33.91H1035.93c-30-4.25-51.4-23.58-62.07-61.51Z" transform="translate(-15.98 -297)"/><path id="path7928-2-7-9-0-7" class="cls-2" d="M635.23,624.91c9.9-.65,20.39.81,30.29.16l50.18-96.48c2.62-5.08,12.63-5,14.53-1.29,15.84,33,32.68,65,48.53,98,11.66-.22,21.59-.1,33.26-.31,2.81-4.77,4.53-9.82,3.38-16.75-27.73-56.55-56.82-112-84.56-168.6-1.17-2.69-12.84-2.77-14.48,0-29.05,58.71-56.7,115.07-85.75,173.78,2.2,4.1,2.42,7.4,4.62,11.49Z" transform="translate(-15.98 -297)"/><path id="path7932-9-1-4-0-3" class="cls-2" d="M286,618.79c.13-59.68,0-118.89,0-178.57h39.62v47.27c1,13.16,16.21,25.8,34.66,27,23.55-.32,44.13-.09,67.68-.41,5.67-.8,8.74-4,9.57-9.39q-.31-32.53-.66-65.07l35.72.31c2.33.43,4.65,2.76,4.56,6.59-.32,59.89-.66,118.71-1,178.61H436.59V582c-2-14.21-8.87-24.64-24.1-28.49l-79-.32c-3.76.1-7.05,2.57-7.19,6-.22,22.34-.43,43.51-.65,65.84H291.49c-3.12,0-5.37-1.68-5.49-6.29Z" transform="translate(-15.98 -297)"/><path id="path7940-4-2-6-2-4" class="cls-3" d="M137,639.82h0a7.08,7.08,0,0,1-1.62-.25c-15.52-4.21-26.51-9.92-38-21a72.32,72.32,0,0,1-22.2-52.36c0-17.25,15.08-30.33,32.33-30.33s32.33,13.08,32.33,30.33c0,10.29,9.31,17.71,19.46,17.71s19.46-7.42,19.46-17.71c0-37.9-33.74-65.84-71.35-65.84-27.18,0-53.23,14.61-65.07,38.87a61.46,61.46,0,0,0-5.78,27,95.54,95.54,0,0,0,6.63,35,6.15,6.15,0,0,1-3.72,8.08,6.44,6.44,0,0,1-8.26-3.66,110.07,110.07,0,0,1-7.42-39.46,74.1,74.1,0,0,1,7-32.49c13.92-28.67,44.55-46.07,76.66-46.07,44.71,0,84.22,33.61,84.22,78.46,0,17.25-15.08,30.32-32.33,30.32S127,583.34,127,566.09c0-10.3-9.31-17.71-19.46-17.71s-19.46,7.41-19.46,17.71a60,60,0,0,0,18.35,43.4c9.74,9.47,18.94,14.3,32.2,17.86A6.34,6.34,0,0,1,137,639.82Zm20.17-20.28c-11.38,0-22.43-2.67-31.91-9-15-10-24.5-26.44-24.5-44.36a6.43,6.43,0,0,1,12.86,0c0,13.74,7.29,26.26,18.85,33.89,7.45,4.92,15.79,6.75,24.7,6.75a61,61,0,0,0,10.19-1A6.44,6.44,0,0,1,174.8,611a6.35,6.35,0,0,1-5.25,7.33A70.61,70.61,0,0,1,157.14,619.54Zm-72,18.21a6.13,6.13,0,0,1-4.53-1.89c-8.9-8.74-14.21-15.4-20.39-26.28-7.48-13.16-10.72-28.42-10.72-43.4,0-31,27.25-54.44,58.22-54.44S166,535.17,166,566.18a6.44,6.44,0,0,1-12.87,0c0-24.06-21.49-41.82-45.36-41.82S62.4,542.12,62.4,566.18c0,12.83,2.72,26,9.16,37.22C77.17,613.22,82,619,89.92,626.94a6.36,6.36,0,0,1,0,8.9l-.13.09a7,7,0,0,1-4.67,1.84ZM27.55,516.24a5.81,5.81,0,0,1-5.1,2.7,6.8,6.8,0,0,1-3.72-1.13A6.21,6.21,0,0,1,17.18,509a104.9,104.9,0,0,1,38.15-32.62c32-16.15,72.78-16.22,104.77-.1a105.45,105.45,0,0,1,38.14,32.41,6.25,6.25,0,0,1-1.54,8.84,6.53,6.53,0,0,1-9-1.51,92.08,92.08,0,0,0-33.52-28.51c-28.37-14.25-64.71-14.26-93,.08a93.72,93.72,0,0,0-33.59,28.66Zm138.53-49a6,6,0,0,1-3-.75c-18.14-9.17-34.77-13.72-55.25-13.72a115.4,115.4,0,0,0-55.22,13.71A6.6,6.6,0,0,1,43.89,464a6.32,6.32,0,0,1,2.57-8.58,129.57,129.57,0,0,1,61.4-15.22c22.32,0,41.33,5.08,61.17,15.11a6.14,6.14,0,0,1,2.73,8.45,6.35,6.35,0,0,1-5.68,3.52Z" transform="translate(-15.98 -297)"/></svg>